<svg fill="none" height="16" viewBox="0 0 16 16" width="16" xmlns="http://www.w3.org/2000/svg"><g fill="#222"><path d="m8 0c2.1217 0 4.1565.84289 5.6568 2.3432 1.5003 1.50028 2.3432 3.53516 2.3432 5.6568 0 2.1216-.8429 4.1565-2.3432 5.6568s-3.5352 2.3432-5.6568 2.3432c-2.12164 0-4.15652-.8429-5.6568-2.3432-1.500274-1.5003-2.34320064-3.5352-2.34320064-5.6568 0-2.12164.84289064-4.15652 2.34320064-5.6568 1.50028-1.500274 3.53516-2.3432 5.6568-2.3432zm0 15.1579c1.89842 0 3.7191-.7541 5.0613-2.0964 1.3424-1.3424 2.0965-3.16304 2.0965-5.06136 0-1.89831-.7541-3.71911-2.0965-5.0613-1.3424-1.34238-3.16298-2.096492-5.0613-2.096492s-3.71911.754112-5.06131 2.096492c-1.34238 1.34238-2.096487 3.16299-2.096487 5.0613 0 1.89832.754107 3.71916 2.096487 5.06136 1.34238 1.3423 3.16299 2.0964 5.06131 2.0964z"/><path d="m12.6328 8.00054c0 1.22834-.4879 2.40646-1.3565 3.27506-.8685.8685-2.0467 1.3565-3.27503 1.3565v-9.26296c1.22833 0 2.40653.48794 3.27503 1.35649.8686.86855 1.3565 2.04672 1.3565 3.27506z"/></g></svg>