<svg fill="none" height="16" viewBox="0 0 16 16" width="16" xmlns="http://www.w3.org/2000/svg"><g fill="#ebebea"><path d="m8 0c-2.12171 0-4.15652.84289-5.6568 2.3432-1.500274 1.50028-2.3432 3.53516-2.3432 5.6568 0 2.1216.84289 4.1565 2.3432 5.6568 1.50028 1.5003 3.53516 2.3432 5.6568 2.3432 2.1216 0 4.1565-.8429 5.6568-2.3432s2.3432-3.5352 2.3432-5.6568c0-2.12164-.8429-4.15652-2.3432-5.6568-1.5003-1.500274-3.5352-2.3432-5.6568-2.3432zm0 15.1579c-1.89842 0-3.71911-.7541-5.06131-2.0964-1.34238-1.3424-2.096486-3.16304-2.096486-5.06136 0-1.89831.754106-3.71911 2.096486-5.0613 1.34238-1.34238 3.16299-2.096492 5.06131-2.096492s3.7191.754112 5.0613 2.096492c1.3424 1.34238 2.0965 3.16299 2.0965 5.0613 0 1.89832-.7541 3.71916-2.0965 5.06136-1.3424 1.3423-3.16298 2.0964-5.0613 2.0964z"/><path d="m3.36719 8.00054c0 1.22834.48794 2.40646 1.35649 3.27506.86855.8685 2.04672 1.3565 3.27505 1.3565v-9.26296c-1.22833 0-2.4065.48794-3.27505 1.35649s-1.35649 2.04672-1.35649 3.27506z"/></g></svg>